<?xml version="1.0" standalone="no"?>
<!DOCTYPE svg PUBLIC "-//W3C//DTD SVG 20010904//EN"
 "http://www.w3.org/TR/2001/REC-SVG-20010904/DTD/svg10.dtd">
<svg version="1.0" xmlns="http://www.w3.org/2000/svg"
 width="285.000000pt" height="78.000000pt" viewBox="0 0 285.000000 78.000000"
 preserveAspectRatio="xMidYMid meet">

<g transform="translate(0.000000,78.000000) scale(0.100000,-0.100000)"
fill="#000000" stroke="none">
<path d="M197 678 c-8 -29 -20 -75 -26 -103 -28 -129 -110 -482 -116 -497 -6
-15 6 -17 120 -20 141 -3 126 -11 140 74 11 68 38 60 50 -14 l7 -38 125 0 125
0 -7 36 c-3 20 -3 34 2 32 76 -37 112 -48 157 -48 59 0 108 14 149 42 l27 19
0 -26 c0 -14 7 -28 16 -32 8 -3 61 -1 117 5 56 5 107 6 112 2 6 -4 34 -4 64 1
44 7 56 5 65 -7 9 -12 31 -14 111 -12 l100 3 3 263 2 263 -116 -3 -117 -3 -32
32 c-40 40 -94 54 -211 56 -75 2 -95 -1 -111 -16 -19 -16 -22 -16 -58 -1 -22
9 -67 16 -105 16 -107 1 -196 -56 -236 -150 -8 -19 -16 -33 -19 -30 -3 2 -15
49 -28 104 l-23 99 -136 3 -136 3 -15 -53z m252 -35 c-2 -24 -2 -24 -6 -6 -4
21 -10 23 -106 26 l-102 3 108 2 107 2 -1 -27z m-159 -5 c0 -7 -14 -58 -30
-113 -17 -55 -39 -138 -50 -183 -11 -46 -25 -93 -32 -105 -11 -21 -11 -21 -18
-2 -5 14 -9 2 -15 -40 -4 -33 -10 -54 -12 -47 -3 7 1 43 7 79 9 46 15 61 22
51 7 -9 8 -2 4 20 -3 19 -2 31 4 27 9 -6 26 76 22 108 -1 9 2 17 7 17 5 0 7 9
4 20 -3 11 -1 20 5 20 7 0 9 15 6 38 -3 28 -2 32 5 17 7 -16 10 -9 17 35 4 30
7 58 6 63 -1 4 9 7 23 7 14 0 25 -6 25 -12z m582 4 c10 -4 -25 -7 -76 -7 -52
0 -89 3 -83 7 15 9 136 9 159 0z m263 1 c-16 -2 -47 -9 -69 -15 l-38 -12 4
-168 c3 -126 1 -168 -9 -168 -6 0 -13 -8 -15 -17 -2 -10 -2 29 0 86 3 57 1
101 -4 98 -5 -3 -10 42 -11 99 l-2 104 87 -1 c48 -1 74 -4 57 -6z m105 -33
c35 -28 35 -29 35 -109 0 -53 -4 -84 -13 -93 -11 -11 -11 -8 -3 15 14 36 14
108 1 143 -11 29 -40 54 -75 66 -20 6 -20 6 0 7 11 0 36 -13 55 -29z m-570 -1
c-14 -11 -33 -30 -43 -42 l-18 -22 10 22 c6 11 23 30 38 42 36 26 46 27 13 0z
m193 10 c28 -7 37 -15 35 -27 -2 -11 -12 -16 -28 -15 -100 10 -142 5 -181 -22
-45 -29 -63 -64 -74 -140 -4 -27 -13 -58 -20 -68 -10 -14 -12 -4 -11 57 1 41
4 72 9 69 7 -4 11 16 9 52 0 11 2 14 5 7 3 -9 13 -3 28 19 30 39 52 55 96 67
46 14 86 14 132 1z m45 -55 c-12 -24 -24 -42 -26 -40 -2 2 4 19 13 36 9 18 14
41 12 52 -4 15 -3 17 8 8 12 -10 10 -19 -7 -56z m542 -10 c0 -7 -9 -16 -20
-19 -18 -6 -20 -16 -21 -98 -2 -129 -12 -227 -24 -227 -6 0 -10 66 -10 178 l0
177 38 0 c23 1 37 -4 37 -11z m40 -199 l0 -215 -40 0 c-30 0 -42 5 -50 21 -7
11 -9 23 -7 26 3 2 8 -5 12 -16 5 -16 15 -21 41 -21 l35 0 -3 210 c-2 116 0
210 5 210 4 0 7 -97 7 -215z m-350 195 c8 -5 11 -10 5 -10 -5 0 -17 5 -25 10
-8 5 -10 10 -5 10 6 0 17 -5 25 -10z m-657 -55 c4 -34 3 -42 -3 -25 -8 25 -13
87 -6 79 2 -2 6 -26 9 -54z m308 35 c-31 -5 -51 -15 -69 -36 -16 -20 -20 -22
-13 -7 17 33 51 53 91 52 34 -1 33 -2 -9 -9z m398 -45 c0 -5 -6 1 -14 15 -8
14 -14 30 -14 35 0 6 6 -1 14 -15 8 -14 14 -29 14 -35z m-87 6 c2 -22 0 -37
-4 -35 -8 5 -11 74 -4 74 2 0 6 -18 8 -39z m-787 -41 c-4 -28 -9 -49 -12 -47
-2 3 -1 28 3 56 4 28 9 50 11 47 3 -3 2 -28 -2 -56z m63 -25 c0 -25 -2 -24 -9
10 -10 51 -10 92 1 50 4 -16 8 -43 8 -60z m549 -57 c-2 -18 -4 -6 -4 27 0 33
2 48 4 33 2 -15 2 -42 0 -60z m-418 13 c5 -24 6 -39 1 -35 -4 5 -11 29 -14 54
-7 53 -1 44 13 -19z m293 20 c2 -22 0 -37 -4 -35 -8 5 -11 74 -4 74 2 0 6 -18
8 -39z m518 -51 c0 -22 -4 -40 -9 -40 -15 0 -23 51 -10 66 17 21 19 18 19 -26z
m-962 3 c-10 -2 -26 -2 -35 0 -10 3 -2 5 17 5 19 0 27 -2 18 -5z m869 -15 c-3
-8 -6 -5 -6 6 -1 11 2 17 5 13 3 -3 4 -12 1 -19z m-417 2 c0 -5 -4 -10 -10
-10 -5 0 -10 5 -10 10 0 6 5 10 10 10 6 0 10 -4 10 -10z m-70 -57 c7 -9 7 -13
1 -13 -6 0 -18 15 -26 33 -13 27 -14 29 -1 12 9 -11 20 -26 26 -32z m187 0
c-3 -10 -5 -2 -5 17 0 19 2 27 5 18 2 -10 2 -26 0 -35z m-400 15 c-3 -8 -6 -5
-6 6 -1 11 2 17 5 13 3 -3 4 -12 1 -19z m330 0 c-3 -8 -6 -5 -6 6 -1 11 2 17
5 13 3 -3 4 -12 1 -19z m-224 -71 c8 -13 32 -32 51 -41 42 -20 48 -30 9 -15
-52 20 -94 75 -92 121 1 18 3 15 9 -9 4 -18 14 -43 23 -56z m646 18 c0 -5 -6
1 -14 15 -8 14 -14 30 -14 35 0 6 6 -1 14 -15 8 -14 14 -29 14 -35z m-742 3
c-3 -7 -5 -2 -5 12 0 14 2 19 5 13 2 -7 2 -19 0 -25z m288 12 c-3 -5 -16 -10
-28 -9 -20 1 -20 2 3 9 14 4 26 8 28 9 2 1 0 -3 -3 -9z m305 -46 c0 -30 -3
-53 -7 -51 -8 5 -5 107 3 107 2 0 4 -25 4 -56z m60 2 c0 -5 -7 -1 -15 10 -8
10 -14 24 -14 29 0 6 6 1 14 -9 8 -11 15 -24 15 -30z m-827 17 c-13 -2 -35 -2
-50 0 -16 2 -5 4 22 4 28 0 40 -2 28 -4z m197 -70 l8 -33 -81 2 -82 2 73 3 73
4 -5 47 c-3 26 -3 38 0 27 3 -11 9 -35 14 -52z m488 5 l37 -3 -42 -5 -43 -6 2
41 c1 36 2 37 5 8 4 -29 8 -32 41 -35z m-147 22 c-13 -11 -31 -20 -40 -20 -9
1 0 9 19 19 46 24 50 25 21 1z m319 -10 c6 -11 8 -20 6 -20 -3 0 -10 9 -16 20
-6 11 -8 20 -6 20 3 0 10 -9 16 -20z m100 -1 c0 -5 -17 -8 -37 -8 -31 2 -33 3
-10 6 15 2 27 9 27 14 0 6 5 7 10 4 6 -3 10 -10 10 -16z m-1053 -26 c-3 -10
-5 -4 -5 12 0 17 2 24 5 18 2 -7 2 -21 0 -30z m140 15 c-3 -8 -6 -5 -6 6 -1
11 2 17 5 13 3 -3 4 -12 1 -19z m-147 -50 c0 -5 -34 -8 -76 -8 -41 0 -73 3
-71 8 3 4 37 7 76 7 39 0 71 -3 71 -7z"/>
<path d="M2205 700 c-4 -6 -6 -50 -5 -98 3 -122 -3 -126 -9 -7 l-6 100 -117 3
c-115 3 -118 2 -118 -19 0 -19 -4 -20 -47 -15 -111 13 -146 11 -153 -9 -4 -13
-9 -15 -14 -7 -5 8 -39 12 -97 12 l-89 0 0 -275 0 -275 99 0 c57 0 103 4 106
10 4 6 9 8 13 6 4 -2 41 -7 82 -10 41 -3 98 -9 125 -14 28 -5 79 -11 115 -12
36 -1 74 -2 85 -3 11 0 75 0 143 1 117 2 123 3 117 21 -9 29 9 33 56 11 59
-26 122 -25 185 4 84 39 124 118 124 245 0 57 -7 99 -24 149 -27 82 -52 116
-108 155 -52 35 -144 38 -195 7 -33 -20 -35 -19 -37 10 -1 12 -22 16 -113 18
-71 2 -114 -1 -118 -8z m-75 -153 l-5 -102 -3 98 c-2 89 -4 97 -22 97 -11 0
-20 -6 -20 -14 0 -7 -9 -16 -20 -19 -15 -4 -20 -14 -20 -39 0 -19 -7 -43 -15
-54 -17 -22 -17 -20 -19 66 l-1 66 65 2 65 2 -5 -103z m238 96 c-16 -2 -28 -8
-28 -12 0 -5 -8 -11 -19 -14 -15 -4 -19 -19 -25 -96 -4 -50 -12 -93 -17 -96
-10 -7 -11 17 -9 134 1 52 -3 76 -12 82 -7 5 18 8 62 7 41 0 63 -3 48 -5z
m237 -3 c-3 -5 -4 -10 -1 -10 2 0 12 -3 22 -7 13 -5 15 -3 9 8 -4 8 7 1 24
-16 33 -30 66 -83 58 -91 -2 -3 -10 9 -16 25 -7 16 -24 40 -38 53 -23 21 -25
22 -21 3 3 -18 -2 -20 -54 -17 -40 3 -64 -1 -81 -13 -31 -20 -63 -94 -73 -165
-4 -30 -14 -61 -22 -69 -13 -13 -14 -13 -9 4 3 11 8 50 12 87 4 40 16 87 30
115 28 55 25 70 -4 22 -12 -19 -21 -28 -21 -22 0 16 69 93 83 93 6 0 2 -7 -9
-16 -19 -15 -19 -16 1 -9 11 4 29 10 39 13 20 5 20 5 0 13 -13 5 -4 8 29 8 30
1 46 -3 42 -9z m-798 -153 c-2 -23 -3 -1 -3 48 0 50 1 68 3 42 2 -26 2 -67 0
-90z m-107 114 c0 -5 -11 -18 -25 -28 -24 -17 -26 -25 -35 -169 -9 -146 -15
-184 -29 -184 -6 0 -3 346 4 367 3 10 21 15 73 22 6 0 12 -3 12 -8z m197 3
c-3 -3 -12 -4 -19 -1 -8 3 -5 6 6 6 11 1 17 -2 13 -5z m458 -39 c-8 -22 -14
-32 -15 -23 0 17 21 70 26 65 2 -1 -3 -21 -11 -42z m-595 -109 c-1 -6 -7 4
-15 23 -8 18 -15 38 -15 45 1 6 7 -4 15 -23 8 -18 15 -38 15 -45z m820 64 c0
-5 -7 -7 -15 -4 -8 4 -15 8 -15 10 0 2 7 4 15 4 8 0 15 -4 15 -10z m-243 -37
c-3 -10 -5 -4 -5 12 0 17 2 24 5 18 2 -7 2 -21 0 -30z m187 0 c-17 -33 -18
-93 -3 -146 8 -29 18 -42 42 -52 20 -9 25 -14 14 -15 -31 0 -65 44 -72 94 -8
54 -1 111 16 132 18 22 19 17 3 -13z m105 -7 c-3 -3 -11 5 -18 17 -13 21 -12
21 5 5 10 -10 16 -20 13 -22z m-222 -18 c-3 -8 -6 -5 -6 6 -1 11 2 17 5 13 3
-3 4 -12 1 -19z m-80 -60 c-2 -13 -4 -5 -4 17 -1 22 1 32 4 23 2 -10 2 -28 0
-40z m261 -2 c2 -36 0 -47 -10 -44 -8 3 -14 24 -16 52 -2 36 0 47 10 44 8 -3
14 -24 16 -52z m59 -28 c-2 -18 -4 -6 -4 27 0 33 2 48 4 33 2 -15 2 -42 0 -60z
m100 -40 c-2 -18 -4 -4 -4 32 0 36 2 50 4 33 2 -18 2 -48 0 -65z m-383 -113
c4 -11 1 -9 -8 6 -8 14 -17 50 -20 80 l-6 54 14 -60 c7 -33 16 -69 20 -80z
m-146 108 c-10 -2 -28 -2 -40 0 -13 2 -5 4 17 4 22 1 32 -1 23 -4z m398 -31
c-17 -16 -18 -16 -5 5 7 12 15 20 18 17 3 -2 -3 -12 -13 -22z m-293 -145 l72
-3 -77 -2 -78 -2 2 88 2 87 3 -82 4 -82 72 -4z m149 53 c12 -11 29 -19 37 -20
8 0 12 -3 8 -6 -23 -23 -91 47 -101 106 -6 31 -4 29 13 -13 10 -26 30 -56 43
-67z m-774 -15 l-3 -30 -55 6 -55 6 53 1 54 2 -6 68 c-5 61 -4 63 5 22 5 -25
8 -58 7 -75z m452 35 l0 -80 -37 2 c-37 1 -37 1 -5 5 l32 4 0 75 c0 41 2 74 5
74 3 0 5 -36 5 -80z m-361 -20 c5 -9 29 -17 62 -21 l54 -6 -56 -1 -56 -2 -26
49 c-15 27 -27 53 -27 57 0 8 19 -22 49 -76z m929 26 c-6 -15 -24 -34 -39 -42
-41 -21 -49 -17 -11 6 18 11 38 31 44 45 6 14 13 23 15 21 2 -2 -2 -16 -9 -30z
m-161 -62 c-3 -3 -12 -4 -19 -1 -8 3 -5 6 6 6 11 1 17 -2 13 -5z"/>
</g>
</svg>
